<?xml version="1.0" encoding="UTF-8" standalone="no"?>
<!DOCTYPE svg PUBLIC "-//W3C//DTD SVG 1.0//EN" "http://www.w3.org/TR/2001/REC-SVG-20010904/DTD/svg10.dtd">
<svg viewBox="0 0 632 600" xmlns="http://www.w3.org/2000/svg">
<title>A form of the Triquetra symbol or trefoil knot with three 120 degree circular arcs grouped around an equilateral triangle (ribbons version)</title>
<g fill="none" stroke="#000" stroke-width="42" transform="matrix(1,0,0,-1,0,600)">
<path d="m339.457,126.964c-27.787-48.1286-79.141-77.7775-134.715-77.7775-85.911,0-155.5555,69.6445-155.5555,155.5555s69.6445,155.555 155.5555,155.555h219.989c85.911,0 155.555-69.644 155.555-155.555s-69.644-155.5555-155.555-155.5555c-55.575,0-106.928,29.6489-134.715,77.7775l-109.995,190.516c-13.652,23.647-20.84,50.472-20.84,77.778 0,85.911 69.644,155.555 155.555,155.555s155.556-69.644 155.556-155.555c0-27.306-7.188-54.131-20.841-77.778l-109.994-190.516z" stroke-width="70"/>
<path d="m339.457,126.964c-27.787-48.1286-79.141-77.7775-134.715-77.7775-85.911,0-155.5555,69.6445-155.5555,155.5555s69.6445,155.555 155.5555,155.555h219.989c85.911,0 155.555-69.644 155.555-155.555s-69.644-155.5555-155.555-155.5555c-55.575,0-106.928,29.6489-134.715,77.7775l-109.995,190.516c-13.652,23.647-20.84,50.472-20.84,77.778 0,85.911 69.644,155.555 155.555,155.555s155.556-69.644 155.556-155.555c0-27.306-7.188-54.131-20.841-77.778l-109.994-190.516z" stroke="#ebf5ff"/>
<path d="m338.079,124.625c-27.626-45.9775-76.991-74.4788-130.622-75.4148m219.988,311.0638c53.631-.936 102.997-29.438 130.623-75.415m-379.383,34.984c-12.347,22.273-19.036,47.238-19.48,72.7" stroke-width="70"/>
<path d="m339.457,126.964c-27.787-48.1286-79.141-77.7775-134.715-77.7775m219.989,311.1105c55.574,0 106.927-29.649 134.715-77.777m-379.425,34.96c-13.652,23.647-20.84,50.472-20.84,77.778" stroke="#ebf5ff"/>
</g>
</svg>
